<?xml version="1.0" encoding="UTF-8" standalone="no"?>
<svg
   xmlns:dc="http://purl.org/dc/elements/1.1/"
   xmlns:cc="http://creativecommons.org/ns#"
   xmlns:rdf="http://www.w3.org/1999/02/22-rdf-syntax-ns#"
   xmlns:svg="http://www.w3.org/2000/svg"
   xmlns="http://www.w3.org/2000/svg"
   xmlns:sodipodi="http://sodipodi.sourceforge.net/DTD/sodipodi-0.dtd"
   xmlns:inkscape="http://www.inkscape.org/namespaces/inkscape"
   width="100mm"
   height="100mm"
   viewBox="0 0 100 100"
   version="1.1"
   id="svg8"
   inkscape:version="1.0.1 (3bc2e813f5, 2020-09-07)"
   sodipodi:docname="zoom-out.svg">
  <defs
     id="defs2" />
  <sodipodi:namedview
     id="base"
     pagecolor="#ffffff"
     bordercolor="#666666"
     borderopacity="1.0"
     inkscape:pageopacity="0.0"
     inkscape:pageshadow="2"
     inkscape:zoom="1.979899"
     inkscape:cx="219.9093"
     inkscape:cy="205.50763"
     inkscape:document-units="mm"
     inkscape:current-layer="layer1"
     inkscape:document-rotation="0"
     showgrid="false"
     inkscape:window-width="2560"
     inkscape:window-height="1377"
     inkscape:window-x="1912"
     inkscape:window-y="-8"
     inkscape:window-maximized="1" />
  <metadata
     id="metadata5">
    <rdf:RDF>
      <cc:Work
         rdf:about="">
        <dc:format>image/svg+xml</dc:format>
        <dc:type
           rdf:resource="http://purl.org/dc/dcmitype/StillImage" />
        <dc:title />
      </cc:Work>
    </rdf:RDF>
  </metadata>
  <g
     inkscape:label="Calque 1"
     inkscape:groupmode="layer"
     id="layer1">
    <path
       id="path833"
       style="fill:#2b2821;stroke-width:7;stroke-linecap:round;stroke-linejoin:round;stroke-dashoffset:34.0158;paint-order:stroke fill markers;fill-opacity:1;stroke:#e3cfb4;stroke-opacity:1;stroke-miterlimit:4;stroke-dasharray:none"
       d="m 84.771171,14.676697 a 35.346393,35.346393 0 0 0 -49.987753,0 35.346393,35.346393 0 0 0 -4.437143,44.568395 L 4.8762729,84.715095 15.837403,95.676225 41.555882,69.957746 a 35.346393,35.346393 0 0 0 43.214924,-5.293661 35.346393,35.346393 0 0 0 3.65e-4,-49.987388 z m -6.061015,6.061015 a 26.77491,26.77491 0 0 1 10e-7,37.865724 26.77491,26.77491 0 0 1 -37.865725,0 26.77491,26.77491 0 0 1 1e-6,-37.865724 26.77491,26.77491 0 0 1 37.865723,0 z" />
    <rect
       style="fill:#2b2821;fill-opacity:1;stroke-width:7;stroke-linecap:round;stroke-linejoin:round;stroke-dashoffset:34.0158;paint-order:stroke fill markers;stroke:#e3cfb4;stroke-opacity:1;stroke-miterlimit:4;stroke-dasharray:none"
       id="rect857"
       width="30.361467"
       height="9.6217022"
       x="45.275806"
       y="34.878674" />
  </g>
</svg>
