<?xml version="1.0" encoding="UTF-8" standalone="no"?>
<svg
   xmlns:dc="http://purl.org/dc/elements/1.1/"
   xmlns:cc="http://creativecommons.org/ns#"
   xmlns:rdf="http://www.w3.org/1999/02/22-rdf-syntax-ns#"
   xmlns:svg="http://www.w3.org/2000/svg"
   xmlns="http://www.w3.org/2000/svg"
   xmlns:sodipodi="http://sodipodi.sourceforge.net/DTD/sodipodi-0.dtd"
   xmlns:inkscape="http://www.inkscape.org/namespaces/inkscape"
   width="100mm"
   height="100mm"
   viewBox="0 0 100 100"
   version="1.1"
   id="svg8"
   inkscape:version="1.0.1 (3bc2e813f5, 2020-09-07)"
   sodipodi:docname="fullscreen.svg"
   inkscape:export-filename="C:\Users\svent\Documents\sven-frankson\fluid-x\datas\icons\fullscreen.png"
   inkscape:export-xdpi="32.512001"
   inkscape:export-ydpi="32.512001">
  <defs
     id="defs2" />
  <sodipodi:namedview
     id="base"
     pagecolor="#ffffff"
     bordercolor="#666666"
     borderopacity="1.0"
     inkscape:pageopacity="0.0"
     inkscape:pageshadow="2"
     inkscape:zoom="1.979899"
     inkscape:cx="287.57053"
     inkscape:cy="227.73266"
     inkscape:document-units="mm"
     inkscape:current-layer="layer1"
     inkscape:document-rotation="0"
     showgrid="false"
     inkscape:window-width="2560"
     inkscape:window-height="1377"
     inkscape:window-x="1912"
     inkscape:window-y="-8"
     inkscape:window-maximized="1" />
  <metadata
     id="metadata5">
    <rdf:RDF>
      <cc:Work
         rdf:about="">
        <dc:format>image/svg+xml</dc:format>
        <dc:type
           rdf:resource="http://purl.org/dc/dcmitype/StillImage" />
        <dc:title />
      </cc:Work>
    </rdf:RDF>
  </metadata>
  <g
     inkscape:label="Calque 1"
     inkscape:groupmode="layer"
     id="layer1">
    <path
       id="rect2011"
       style="fill:#2b2821;fill-opacity:1;stroke:#e3cfb4;stroke-width:12.0995;stroke-linecap:round;stroke-linejoin:round;stroke-dashoffset:34.0158;stroke-opacity:1;paint-order:markers fill stroke"
       d="M 32.349609 32.40625 L 32.349609 67.441406 L 32.349609 138.97461 L 67.5 138.97461 L 67.5 67.441406 L 138.97461 67.441406 L 138.97461 32.40625 L 67.5 32.40625 L 32.349609 32.40625 z M 238.97852 32.40625 L 238.97852 67.556641 L 310.45312 67.556641 L 310.45312 138.97461 L 345.48828 138.97461 L 345.48828 67.556641 L 345.48828 32.40625 L 310.45312 32.40625 L 238.97852 32.40625 z M 32.464844 238.97852 L 32.464844 310.39648 L 32.464844 345.54688 L 67.5 345.54688 L 138.97461 345.54688 L 138.97461 310.39648 L 67.5 310.39648 L 67.5 238.97852 L 32.464844 238.97852 z M 310.45312 238.97852 L 310.45312 310.51172 L 238.97852 310.51172 L 238.97852 345.54688 L 310.45312 345.54688 L 345.60352 345.54688 L 345.60352 310.51172 L 345.60352 238.97852 L 310.45312 238.97852 z "
       transform="scale(0.26458333)" />
  </g>
</svg>
