<?xml version="1.0" encoding="UTF-8" standalone="no"?>
<svg
   xmlns:dc="http://purl.org/dc/elements/1.1/"
   xmlns:cc="http://creativecommons.org/ns#"
   xmlns:rdf="http://www.w3.org/1999/02/22-rdf-syntax-ns#"
   xmlns:svg="http://www.w3.org/2000/svg"
   xmlns="http://www.w3.org/2000/svg"
   xmlns:sodipodi="http://sodipodi.sourceforge.net/DTD/sodipodi-0.dtd"
   xmlns:inkscape="http://www.inkscape.org/namespaces/inkscape"
   width="75"
   height="300"
   id="svg6065"
   version="1.1"
   inkscape:version="1.0.1 (3bc2e813f5, 2020-09-07)"
   sodipodi:docname="nobori-blue.svg"
   inkscape:export-filename="C:\Users\svent\Documents\sven-frankson\fluid-x\datas\textures\nobori-blue.png"
   inkscape:export-xdpi="327.67999"
   inkscape:export-ydpi="327.67999">
  <defs
     id="defs6067" />
  <sodipodi:namedview
     id="base"
     pagecolor="#ffffff"
     bordercolor="#666666"
     borderopacity="1.0"
     inkscape:pageopacity="0.0"
     inkscape:pageshadow="2"
     inkscape:zoom="2.8"
     inkscape:cx="70.886011"
     inkscape:cy="137.34454"
     inkscape:document-units="px"
     inkscape:current-layer="layer1"
     showgrid="false"
     inkscape:window-width="2560"
     inkscape:window-height="1377"
     inkscape:window-x="1912"
     inkscape:window-y="-8"
     inkscape:window-maximized="1"
     inkscape:document-rotation="0" />
  <metadata
     id="metadata6070">
    <rdf:RDF>
      <cc:Work
         rdf:about="">
        <dc:format>image/svg+xml</dc:format>
        <dc:type
           rdf:resource="http://purl.org/dc/dcmitype/StillImage" />
        <dc:title></dc:title>
      </cc:Work>
    </rdf:RDF>
  </metadata>
  <g
     inkscape:label="Layer 1"
     inkscape:groupmode="layer"
     id="layer1"
     transform="translate(-273.82856,-427.79074)">
    <rect
       style="fill:#243d5c;fill-opacity:1;stroke:none;stroke-width:4;stroke-linecap:round;stroke-linejoin:round;stroke-miterlimit:4;stroke-dasharray:none;stroke-dashoffset:34.0158;stroke-opacity:1;paint-order:stroke fill markers"
       id="rect835"
       width="75"
       height="300"
       x="273.82855"
       y="427.79071" />
    <g
       id="g6082"
       style="font-style:normal;font-variant:normal;font-weight:normal;font-stretch:normal;font-size:100px;font-family:'Droid Serif';-inkscape-font-specification:'Droid Serif';fill:#2b2821;fill-opacity:1;stroke:#e3cfb4;stroke-width:2;stroke-linecap:round;stroke-linejoin:round;stroke-miterlimit:4;stroke-dasharray:none;stroke-opacity:1;paint-order:stroke fill markers"
       transform="matrix(1.311643,0,0,1.311643,-218.72288,-44.623978)">
      <path
         id="path6084"
         d="m 420.66259,466.88059 c 0.93327,0.0667 2.26661,0.53337 4,1.4 1.73327,0.8667 2.59994,1.7667 2.6,2.7 -6e-5,0.0667 -0.16673,0.4667 -0.5,1.2 -0.26673,0.6667 -0.60006,1.43336 -1,2.3 -0.3334,0.8667 -0.5334,1.53336 -0.6,2 -6e-5,0.93336 -0.0667,2.43336 -0.2,4.5 -0.1334,2.00002 -0.40006,4.80002 -0.8,8.4 -0.33339,3.53334 -1.00006,6.56667 -2,9.1 -0.93339,2.46667 -2.10006,3.7 -3.5,3.7 -0.13339,0 -0.30006,-0.0333 -0.5,-0.1 l -5.8,-7.8 c 1.19995,0.26668 2.49995,0.40001 3.9,0.4 h 1.4 c 0.59994,-0.39999 1.09994,-0.83332 1.5,-1.3 0.39994,-0.46666 0.69994,-1.09999 0.9,-1.9 0.26661,-0.86665 0.43328,-1.49999 0.5,-1.9 0.13328,-0.39999 0.26661,-1.19998 0.4,-2.4 0.13327,-1.26665 0.19994,-2.03331 0.2,-2.3 -6e-5,-2.13331 -6e-5,-3.83331 0,-5.1 -6e-5,-1.33331 -6e-5,-2.16664 0,-2.5 0.0666,-0.33331 0.0999,-0.63331 0.1,-0.9 -6e-5,-0.26664 -6e-5,-0.56664 0,-0.9 -6e-5,-1.86664 -0.40006,-3.26664 -1.2,-4.2 -0.73339,-0.99997 -2.06672,-1.49997 -4,-1.5 -2.33338,3e-5 -5.03338,0.40003 -8.1,1.2 0.19995,0.40003 0.76662,0.9667 1.7,1.7 l -5.1,6.1 h 7.2 c -0.60005,0.66669 -2.13338,1.23336 -4.6,1.7 -2.46671,0.46669 -3.83337,0.76669 -4.1,0.9 v 3.7 c 0.26663,2e-5 1.26663,-0.13331 3,-0.4 1.79995,-0.26665 2.83329,-0.39998 3.1,-0.4 1.73329,2e-5 3.19995,0.50002 4.4,1.5 -5e-5,0.20002 -0.16672,0.50002 -0.5,0.9 -0.33338,0.40002 -0.60005,0.60002 -0.8,0.6 l -8.7,0.2 c -0.26671,0.46668 -0.50004,1.06668 -0.7,1.8 -0.13337,0.66668 -0.23337,1.30001 -0.3,1.9 -0.0667,0.53335 -0.13337,0.83335 -0.2,0.9 -4e-5,0.20001 -0.0334,0.66668 -0.1,1.4 -0.0667,0.73334 -0.16671,1.30001 -0.3,1.7 -0.0667,0.33334 -0.26671,0.76667 -0.6,1.3 -0.26671,0.46667 -0.63337,0.83334 -1.1,1.1 -0.0667,-2.93332 -0.30004,-5.93332 -0.7,-9 -0.0667,-0.13332 -0.20004,-0.26665 -0.4,-0.4 -3.2667,0.86668 -5.20003,1.30001 -5.8,1.3 -0.53336,10e-6 -1.1667,-0.19999 -1.9,-0.6 -0.73336,-0.46665 -1.13336,-0.93332 -1.2,-1.4 2.1333,-0.33332 5.29997,-0.96665 9.5,-1.9 v -3.8 c -1.6667,0.40002 -2.9667,0.60002 -3.9,0.6 -1.2667,2e-5 -2.43336,-0.29998 -3.5,-0.9 2.1333,-0.26664 5.09997,-0.83331 8.9,-1.7 0.26663,-0.0666 0.99996,-0.96664 2.2,-2.7 1.26662,-1.79997 1.89996,-2.86664 1.9,-3.2 v -2.2 c -0.26671,-0.1333 -0.66671,-0.16663 -1.2,-0.1 l -18,2.3 v 20.6 c -2e-5,0.26668 -0.46669,1.20001 -1.4,2.8 -1.60002,-0.46666 -2.40002,-1.83333 -2.4,-4.1 -2e-5,-0.46666 0.13331,-2.03332 0.4,-4.7 0.26665,-2.66665 0.39998,-4.23331 0.4,-4.7 -2e-5,-4.46664 -0.53335,-7.83331 -1.6,-10.1 l -0.6,-1.2 v -1.8 h 1.8 c 0.13331,3e-5 0.53331,0.23337 1.2,0.7 0.73331,0.4667 1.19998,0.70003 1.4,0.7 -2e-5,-0.1333 4.03331,-0.7333 12.1,-1.8 1.5333,-1.46663 2.29996,-3.76663 2.3,-6.9 -0.20004,-0.19996 -0.7667,-0.29996 -1.7,-0.3 -0.20004,4e-5 -0.70003,0.0334 -1.5,0.1 -0.80003,0.0667 -1.30003,0.10004 -1.5,0.1 -1.40003,4e-5 -2.7667,-0.49996 -4.1,-1.5 0.46664,-0.0666 1.2333,-0.16662 2.3,-0.3 1.06664,-0.19996 1.89997,-0.36662 2.5,-0.5 0.66663,-0.13329 1.36663,-0.29996 2.1,-0.5 0.79996,-0.19996 1.39996,-0.46662 1.8,-0.8 0.46663,-0.33329 0.76663,-0.73329 0.9,-1.2 0.66663,-3.66662 0.99996,-5.79995 1,-6.4 -4e-5,-1.73328 -0.30004,-3.46661 -0.9,-5.2 h 2.7 c 0.33329,6e-5 0.96663,0.36672 1.9,1.1 0.99996,0.73339 1.59996,1.23339 1.8,1.5 l -3,8.6 c 1.46662,5e-5 3.03329,-0.19995 4.7,-0.6 1.73329,-0.39995 2.63328,-0.59995 2.7,-0.6 0.33328,5e-5 1.49995,0.30005 3.5,0.9 -0.60005,1.06671 -2.53338,2.00004 -5.8,2.8 -3.26671,0.73338 -5.06671,1.23338 -5.4,1.5 -0.53337,0.40004 -0.96671,0.96671 -1.3,1.7 -0.33337,0.66671 -1.13337,2.5667 -2.4,5.7 0.7333,0.20003 1.46663,0.30003 2.2,0.3 l 18.4,-2.9 m -23.1,11.7 c -0.53337,3e-5 -1.20003,-0.46664 -2,-1.4 -0.73337,-0.99997 -1.10003,-1.69997 -1.1,-2.1 v -1.6 h 2.1 c 0.66663,3e-5 1.19996,0.4667 1.6,1.4 0.46663,0.86669 0.69996,1.70003 0.7,2.5 -4e-5,0.33336 -0.0334,0.56669 -0.1,0.7 -0.40004,0.33336 -0.80004,0.50003 -1.2,0.5"
         sodipodi:nodetypes="csscccsccsccccsccssscsscsccccscccscscccscscccccsccccscccccccccsssccccccccsssccscccsccccccsccsccccccccccscc"
         style="fill:#2b2821;fill-opacity:1;stroke:#e3cfb4;stroke-width:2;stroke-linecap:round;stroke-linejoin:round;stroke-miterlimit:4;stroke-dasharray:none;stroke-opacity:1;paint-order:stroke fill markers" />
    </g>
    <circle
       style="fill:#e3cfb4;stroke-width:4.28976;stroke-linecap:round;stroke-linejoin:round;stroke-dashoffset:34.0158;paint-order:markers fill stroke"
       id="path2015"
       cx="311.32855"
       cy="459.62109"
       r="21.964285" />
    <circle
       style="fill:#e3cfb4;stroke-width:2.54596;stroke-linecap:round;stroke-linejoin:round;stroke-dashoffset:34.0158;paint-order:markers fill stroke"
       id="path2015-1"
       cx="311.32855"
       cy="504.44254"
       r="13.035713" />
    <circle
       style="fill:#e3cfb4;stroke-width:4.28976;stroke-linecap:round;stroke-linejoin:round;stroke-dashoffset:34.0158;paint-order:markers fill stroke"
       id="path2015-3"
       cx="-311.32855"
       cy="-695.96039"
       r="21.964285"
       transform="scale(-1)" />
    <circle
       style="fill:#e3cfb4;stroke-width:2.54596;stroke-linecap:round;stroke-linejoin:round;stroke-dashoffset:34.0158;paint-order:markers fill stroke"
       id="path2015-1-2"
       cx="-311.32855"
       cy="-651.13898"
       r="13.035713"
       transform="scale(-1)" />
  </g>
</svg>
