<?xml version="1.0" encoding="UTF-8" standalone="no"?>
<svg
   xmlns:dc="http://purl.org/dc/elements/1.1/"
   xmlns:cc="http://creativecommons.org/ns#"
   xmlns:rdf="http://www.w3.org/1999/02/22-rdf-syntax-ns#"
   xmlns:svg="http://www.w3.org/2000/svg"
   xmlns="http://www.w3.org/2000/svg"
   xmlns:sodipodi="http://sodipodi.sourceforge.net/DTD/sodipodi-0.dtd"
   xmlns:inkscape="http://www.inkscape.org/namespaces/inkscape"
   width="75"
   height="300"
   id="svg5066"
   version="1.1"
   inkscape:version="1.0.1 (3bc2e813f5, 2020-09-07)"
   sodipodi:docname="nobori-yellow-east.svg"
   inkscape:export-filename="C:\Users\svent\Documents\sven-frankson\fluid-x\datas\textures\nobori-yellow.png"
   inkscape:export-xdpi="327.67999"
   inkscape:export-ydpi="327.67999">
  <defs
     id="defs5068" />
  <sodipodi:namedview
     id="base"
     pagecolor="#ffffff"
     bordercolor="#666666"
     borderopacity="1.0"
     inkscape:pageopacity="0.0"
     inkscape:pageshadow="2"
     inkscape:zoom="2.8"
     inkscape:cx="3.5979097"
     inkscape:cy="148.45515"
     inkscape:document-units="px"
     inkscape:current-layer="layer1"
     showgrid="false"
     inkscape:window-width="2560"
     inkscape:window-height="1377"
     inkscape:window-x="1912"
     inkscape:window-y="-8"
     inkscape:window-maximized="1"
     inkscape:document-rotation="0" />
  <metadata
     id="metadata5071">
    <rdf:RDF>
      <cc:Work
         rdf:about="">
        <dc:format>image/svg+xml</dc:format>
        <dc:type
           rdf:resource="http://purl.org/dc/dcmitype/StillImage" />
        <dc:title></dc:title>
      </cc:Work>
    </rdf:RDF>
  </metadata>
  <g
     inkscape:label="Layer 1"
     inkscape:groupmode="layer"
     id="layer1"
     transform="translate(-227.95074,-511.7373)">
    <rect
       style="fill:#d4804d;fill-opacity:1;stroke:none;stroke-width:4.00002;stroke-linecap:round;stroke-linejoin:round;stroke-miterlimit:4;stroke-dasharray:none;stroke-dashoffset:34.0158;stroke-opacity:1;paint-order:stroke fill markers"
       id="rect834"
       width="75"
       height="300"
       x="227.95074"
       y="511.7373" />
    <path
       style="font-style:normal;font-variant:normal;font-weight:normal;font-stretch:normal;font-size:100px;font-family:'Droid Serif';-inkscape-font-specification:'Droid Serif';fill:#2b2821;fill-opacity:1;stroke:#e3cfb4;stroke-width:2.44819;stroke-linecap:round;stroke-linejoin:round;stroke-miterlimit:4;stroke-dasharray:none;stroke-opacity:1;paint-order:stroke fill markers"
       id="path5089"
       d="m 273.46855,667.00091 c -0.40809,-1.06086 -0.73452,-1.67291 -0.97928,-1.83614 -0.24488,-0.16319 -0.85692,-0.2448 -1.83614,-0.24482 -0.48969,2e-5 -2.81547,0.32645 -6.97735,0.97928 l -0.36723,0.36722 c 1.38726,1.30573 2.81537,2.52983 4.28434,3.67229 1.46886,1.14251 2.81537,2.16259 4.03951,3.06024 1.30565,0.81608 2.69295,1.63215 4.16193,2.44819 1.46885,0.73447 2.69295,1.38733 3.67229,1.95855 1.06081,0.48965 2.32572,1.02009 3.79469,1.59133 1.55045,0.48965 2.65214,0.89768 3.30506,1.22409 0.73438,0.24484 1.83607,0.53045 3.30506,0.85687 1.46884,0.32643 2.4073,0.57125 2.81542,0.73446 0.40795,0.0817 1.30562,0.28563 2.69301,0.61205 1.46883,0.24483 2.2441,0.36724 2.32578,0.36722 0.48955,0.0816 0.93839,0.48966 1.3465,1.2241 -5.71252,1.46892 -9.75203,2.20337 -12.11854,2.20337 -0.16328,0 -0.4081,0 -0.73446,0 -0.24489,0 -0.4489,0 -0.61205,0 -0.97935,0 -2.08102,-0.24482 -3.30505,-0.73445 -1.22416,-0.57124 -3.42753,-2.16257 -6.61012,-4.77398 -3.18271,-2.693 -7.18141,-6.48769 -11.99614,-11.38409 -0.24487,0.24485 -0.36728,0.40806 -0.36723,0.48964 v 12.60819 c -5e-5,0.40804 0.0815,1.38731 0.24482,2.93783 0.16317,1.46891 0.24477,2.40739 0.24482,2.81542 -5e-5,2.69301 -0.7345,5.42682 -2.20337,8.20144 -2.36663,-1.55053 -3.54991,-3.34586 -3.54988,-5.38602 -3e-5,-0.16321 0.0408,-0.44884 0.12241,-0.85687 0.16317,-0.48964 0.36719,-1.38731 0.61205,-2.69301 0.32638,-1.3057 0.65281,-2.93782 0.97928,-4.89638 l -0.12241,-10.64964 c -0.89772,0.73449 -2.24422,1.83616 -4.03952,3.30506 -1.79538,1.38733 -3.22348,2.489 -4.28433,3.30506 -1.06091,0.81608 -2.36662,1.83616 -3.91711,3.06024 -1.55055,1.1425 -2.85625,2.08097 -3.91711,2.81542 -0.9793,0.65286 -2.08098,1.3465 -3.30505,2.08096 -1.14251,0.65286 -2.16259,1.1425 -3.06024,1.46892 -0.81608,0.32643 -1.50974,0.48963 -2.08096,0.48963 h -3.18265 c 1.30568,-0.89766 3.06022,-2.12176 5.26361,-3.67228 2.28496,-1.55052 3.87628,-2.6114 4.77397,-3.18265 0.89764,-0.65284 2.12174,-1.55051 3.67229,-2.69301 1.6321,-1.14247 2.77458,-1.95854 3.42747,-2.44819 0.65282,-0.57123 1.50968,-1.30568 2.5706,-2.20337 1.14244,-0.97927 1.99931,-1.79532 2.5706,-2.4482 0.57121,-0.65283 1.18326,-1.38729 1.83614,-2.20337 0.65281,-0.89764 1.26486,-1.79532 1.83614,-2.69301 -0.16325,-0.16318 -0.57128,-0.24479 -1.22409,-0.24482 -1.63216,3e-5 -2.89707,0.16324 -3.7947,0.48964 -0.8977,0.24484 -1.42814,0.48966 -1.59132,0.73446 -0.0816,0.24484 -0.20405,0.65287 -0.36723,1.22409 -0.97931,3e-5 -1.87698,-0.89764 -2.69301,-2.69301 -0.7345,-1.7953 -1.71376,-4.1619 -2.93783,-7.09975 -1.22412,-3.0194 -2.65224,-5.46759 -4.28434,-7.34457 v -1.95856 h 3.30506 l 1.71374,0.85687 c 0.0815,0.0816 0.53041,0.12245 1.3465,0.12241 1.6321,4e-5 5.91642,-1.02004 12.853,-3.06024 v -4.77397 c -0.48968,5e-5 -1.67297,0.16326 -3.54987,0.48964 -1.87698,0.24486 -3.06028,0.36727 -3.54988,0.36722 -1.14252,5e-5 -2.77464,-0.53038 -4.89638,-1.59132 l 11.99613,-2.32578 v -4.89638 l -2.44819,-8.07903 c 2.69297,0.65292 5.22277,1.71379 7.5894,3.18264 l -1.46892,6.73253 c -5e-5,0.48969 0.28557,0.89773 0.85687,1.2241 l 8.07903,-1.71374 c 1.30564,0.0816 2.77456,0.6121 4.40674,1.59133 -2.12182,1.14254 -6.16133,2.48903 -12.11854,4.03951 -0.6529,0.16326 -1.22415,0.6121 -1.71374,1.34651 v 3.67228 c 0.0815,0.16326 0.36718,0.24487 0.85687,0.24482 0.32638,5e-5 2.36653,-0.36718 6.12048,-1.10168 3.83544,-0.81602 5.9164,-1.22405 6.24289,-1.2241 0.65278,5e-5 2.0401,0.48969 4.16192,1.46892 2.20331,0.89771 3.305,1.87699 3.30506,2.93782 -6e-5,0.40808 -0.28569,1.10173 -0.85687,2.08097 -0.57131,0.97931 -1.22415,2.0402 -1.95855,3.18265 -0.73452,1.06092 -1.18336,1.75457 -1.34651,2.08096 l -4.28433,10.15999 h -2.08096 m -10.16,-12.853 c 0.97923,0.24485 1.7953,0.36726 2.44819,0.36723 0.40798,3e-5 0.77521,-0.0408 1.10169,-0.12241 0.40798,-0.16317 0.6528,-0.24479 0.73446,-0.24482 2.44814,3e-5 3.83544,0.57128 4.16192,1.71373 -1.22414,0.65289 -4.03956,1.55055 -8.44626,2.69301 v 3.54988 c 0.40799,0.48966 1.34646,0.73448 2.81542,0.73446 l 7.34458,-0.73446 c 1.38725,-5.4676 2.0809,-8.77265 2.08096,-9.91517 -6e-5,-1.46888 -0.20407,-2.36655 -0.61205,-2.69302 h -7.46698 c -0.5713,4e-5 -1.9586,0.36727 -4.16193,1.10169 v 3.54988 m -3.30505,1.59132 v -4.52915 h -1.71374 l -11.01686,2.08096 3.7947,11.62891 6.73252,-1.10169 c 0.5712,0.16325 1.26486,0.44887 2.08097,0.85687 v -5.01879 c -5e-5,-0.24478 -0.12246,-0.36719 -0.36723,-0.36723 -2.20341,0.24486 -3.50912,0.36726 -3.91711,0.36723 -0.0816,3e-5 -0.24485,3e-5 -0.48964,0 -0.16324,3e-5 -0.24485,3e-5 -0.24482,0 -0.8977,3e-5 -1.55056,-0.0815 -1.95855,-0.24482 -0.40806,-0.24478 -0.8977,-0.73442 -1.46891,-1.46892 l 8.56867,-2.20337"
       sodipodi:nodetypes="cssccscccccsccscssscccccsscscccccsccccccccccssccscccccccccscccsccccccccccccscscsscccccscscccccscccccccccccccsssccc" />
    <path
       sodipodi:type="star"
       style="fill:#e3cfb4;stroke-width:4.28976;stroke-linecap:round;stroke-linejoin:round;stroke-dashoffset:34.0158;paint-order:markers fill stroke"
       id="path1421"
       sodipodi:sides="3"
       sodipodi:cx="268.16977"
       sodipodi:cy="534.95776"
       sodipodi:r1="46.440933"
       sodipodi:r2="23.220467"
       sodipodi:arg1="1.5707963"
       sodipodi:arg2="2.6179939"
       inkscape:flatsided="true"
       inkscape:rounded="-3.46945e-18"
       inkscape:randomized="0"
       d="m 268.16977,581.3987 -40.21903,-69.6614 80.43806,0 z"
       inkscape:transform-center-y="12.499999"
       transform="matrix(0.93239449,0,0,1.0766364,15.410726,-39.217705)" />
    <path
       sodipodi:type="star"
       style="fill:#e3cfb4;stroke-width:4.28976;stroke-linecap:round;stroke-linejoin:round;stroke-dashoffset:34.0158;paint-order:markers fill stroke"
       id="path1421-3"
       sodipodi:sides="3"
       sodipodi:cx="268.16977"
       sodipodi:cy="534.95776"
       sodipodi:r1="46.440933"
       sodipodi:r2="23.220467"
       sodipodi:arg1="1.5707963"
       sodipodi:arg2="2.6179939"
       inkscape:flatsided="true"
       inkscape:rounded="-3.46945e-18"
       inkscape:randomized="0"
       d="m 268.16977,581.3987 -40.21903,-69.6614 80.43806,0 z"
       inkscape:transform-center-y="-12.499987"
       transform="matrix(-0.93239449,0,0,-1.0766364,515.49076,1362.6923)" />
  </g>
  <g
     id="g5654"
     inkscape:groupmode="layer"
     inkscape:label="Layer 1 复制"
     transform="translate(-227.95074,-511.7373)" />
</svg>
