<?xml version="1.0" encoding="UTF-8" standalone="no"?>
<svg
   xmlns:dc="http://purl.org/dc/elements/1.1/"
   xmlns:cc="http://creativecommons.org/ns#"
   xmlns:rdf="http://www.w3.org/1999/02/22-rdf-syntax-ns#"
   xmlns:svg="http://www.w3.org/2000/svg"
   xmlns="http://www.w3.org/2000/svg"
   xmlns:sodipodi="http://sodipodi.sourceforge.net/DTD/sodipodi-0.dtd"
   xmlns:inkscape="http://www.inkscape.org/namespaces/inkscape"
   width="75"
   height="300"
   version="1.1"
   id="svg10"
   sodipodi:docname="nobori-green.svg"
   inkscape:version="1.0.1 (3bc2e813f5, 2020-09-07)"
   inkscape:export-filename="C:\Users\svent\Documents\sven-frankson\fluid-x\datas\textures\nobori-green.png"
   inkscape:export-xdpi="327.67999"
   inkscape:export-ydpi="327.67999">
  <metadata
     id="metadata16">
    <rdf:RDF>
      <cc:Work
         rdf:about="">
        <dc:format>image/svg+xml</dc:format>
        <dc:type
           rdf:resource="http://purl.org/dc/dcmitype/StillImage" />
        <dc:title />
      </cc:Work>
    </rdf:RDF>
  </metadata>
  <defs
     id="defs14" />
  <sodipodi:namedview
     pagecolor="#ffffff"
     bordercolor="#666666"
     borderopacity="1"
     objecttolerance="10"
     gridtolerance="10"
     guidetolerance="10"
     inkscape:pageopacity="0"
     inkscape:pageshadow="2"
     inkscape:window-width="2560"
     inkscape:window-height="1377"
     id="namedview12"
     showgrid="false"
     inkscape:zoom="2.6498423"
     inkscape:cx="24.626662"
     inkscape:cy="146.62152"
     inkscape:window-x="1912"
     inkscape:window-y="-8"
     inkscape:window-maximized="1"
     inkscape:current-layer="svg10"
     inkscape:document-rotation="0" />
  <rect
     style="fill:#3e6958;fill-opacity:1;stroke:none;stroke-width:37.7952;stroke-linecap:square;stroke-linejoin:round;stroke-dashoffset:34.0158;paint-order:stroke fill markers"
     id="rect844"
     width="75"
     height="300"
     x="0"
     y="0" />
  <path
     fill="#20208c"
     d="m 58.917719,137.81511 c 1.004865,5e-5 2.889127,0.83749 5.652786,2.51235 2.763509,1.67494 4.145301,2.97298 4.145377,3.89414 -7.6e-5,0.33502 -0.293191,0.79561 -0.879322,1.38179 -0.502546,0.58626 -1.214382,1.92617 -2.135497,4.01976 -0.83753,2.0099 -1.591235,4.77349 -2.261115,8.29075 -1.088764,6.44839 -2.009955,10.76125 -2.763584,12.9386 -0.75378,2.17738 -1.968074,4.35474 -3.642907,6.53211 -1.507472,1.84239 -2.554293,2.76358 -3.140436,2.76358 -0.753768,0 -1.256238,-0.2931 -1.50741,-0.87932 l -2.763584,-8.29075 c -0.921254,-2.00987 -2.889265,-3.01481 -5.904021,-3.01482 -0.921254,1e-5 -9.672596,0.71185 -26.254051,2.1355 -0.167524,0.0838 -0.335009,0.29311 -0.50247,0.62808 -0.08379,0.25125 -0.335009,0.79559 -0.753705,1.63303 -0.335009,0.83745 -0.879347,1.75866 -1.633027,2.76358 -0.837479,-3.09855 -1.591184,-6.86708 -2.261114,-11.30557 -0.669981,-4.43847 -1.423686,-8.12324 -2.261115,-11.05434 -0.8374662,-3.01478 -2.0936409,-5.82024 -3.7685237,-8.41637 l 7.9139007,0.62809 c 0.08379,4e-5 0.16746,4e-5 0.251235,0 1.423635,4e-5 5.066542,-0.5443 10.928719,-1.63303 v -9.04445 c -3.7e-5,-0.58617 -0.293141,-1.50736 -0.879322,-2.76359 -0.502507,-1.25612 -0.921228,-1.92608 -1.256175,-2.00988 -3.7e-5,-0.0837 -0.544375,-0.16743 -1.633027,-0.25123 -1.004977,-0.16744 -2.30302,-0.46054 -3.894141,-0.87932 -1.507435,-0.50242 -2.721741,-1.25613 -3.642907,-2.26112 4.019734,5e-5 9.672508,-0.75365 16.958358,-2.26111 l 19.34509,-4.01976 c 3.433478,6e-5 5.150254,0.67002 5.150317,2.00988 -6.3e-5,0.58627 -0.795649,1.25624 -2.386732,2.00988 -1.507473,0.67002 -2.847396,1.13062 -4.019759,1.38179 -2.093679,0.25128 -5.234116,0.79564 -9.42131,1.63303 1.172375,1.33997 2.470418,3.09862 3.894141,5.27593 l -2.386732,7.9139 c 0.08366,0.0838 0.418671,0.12566 1.00494,0.12562 l 16.707123,-2.38673 m -21.480587,3.26605 V 127.012 l -11.431189,1.75865 c 2.428562,1.67494 3.642869,2.88925 3.642906,3.6429 v 9.79817 h 1.884262 c 0.586169,4e-5 2.55418,-0.37682 5.904021,-1.13056 m 17.335211,28.64078 c 1.172363,-1.50739 2.219171,-4.56408 3.140437,-9.17007 1.004864,-4.60596 1.507334,-8.54196 1.507409,-11.80804 -7.5e-5,-3.09853 -0.418796,-4.94092 -1.256174,-5.52717 -0.670032,-0.50243 -2.679911,-0.75367 -6.029639,-0.75371 h -11.43119 v 9.04446 c 1.50736,0.83748 2.554168,1.2562 3.140437,1.25617 0.251172,3e-5 0.795523,-0.0837 1.633027,-0.25123 0.921141,-0.25121 1.507347,-0.37683 1.758645,-0.37685 2.344801,2e-5 3.810329,0.92123 4.396611,2.76358 -1.423723,1.08872 -3.391734,1.63305 -5.904021,1.63303 -3.266104,2e-5 -5.652836,-0.62806 -7.160196,-1.88426 -1.42371,-1.25615 -2.135547,-3.43352 -2.135496,-6.53211 -5.1e-5,-1.59112 0.125617,-3.09853 0.376852,-4.52223 -1.591197,0.33502 -4.103546,0.66999 -7.537048,1.00494 -0.418771,2.59612 -0.753743,4.56413 -1.00494,5.90402 -0.251273,1.2562 -0.711874,2.76361 -1.381792,4.52223 -0.669993,1.75867 -1.549316,3.18233 -2.637967,4.27099 -1.004977,1.0887 -2.30302,1.96803 -3.894141,2.63797 v -0.7537 c 0.502432,-0.83743 1.465503,-2.97293 2.889201,-6.4065 1.423623,-3.43351 2.13546,-5.40151 2.135497,-5.90402 v -3.14043 l -10.928719,1.75864 v 1.13056 c -2.5e-5,0.16752 0.125617,0.96309 0.376852,2.38673 l 0.50247,3.01482 c 0.502445,5.35969 0.837416,9.79817 1.00494,13.31545 l 29.394487,-3.01482 c 1.172375,1e-5 2.177315,0.25125 3.014819,0.75371 0.921128,0.50248 1.549216,1.00495 1.884262,1.50741 0.418658,0.41874 1.214244,1.46555 2.386732,3.14043 h 1.758645"
     font-family="'Droid Serif'"
     font-size="100px"
     font-weight="400"
     style="-inkscape-font-specification:'Droid Serif';fill:#2b2821;fill-opacity:1;stroke:#e3cfb4;stroke-width:2.51235;stroke-linecap:round;stroke-linejoin:round;stroke-miterlimit:4;stroke-dasharray:none;stroke-opacity:1;paint-order:stroke fill markers"
     id="path4" />
  <rect
     style="fill:#e3cfb4;stroke-width:5.60248;stroke-linecap:round;stroke-linejoin:round;stroke-dashoffset:34.0158;paint-order:markers fill stroke"
     id="rect2623-1"
     width="30"
     height="60"
     x="22.5"
     y="0" />
  <rect
     style="fill:#e3cfb4;stroke-width:5.60248;stroke-linecap:round;stroke-linejoin:round;stroke-dashoffset:34.0158;paint-order:markers fill stroke"
     id="rect2623-1-9"
     width="30"
     height="60"
     x="22.5"
     y="240" />
</svg>
