<?xml version="1.0" encoding="UTF-8" standalone="no"?>
<svg
   xmlns:dc="http://purl.org/dc/elements/1.1/"
   xmlns:cc="http://creativecommons.org/ns#"
   xmlns:rdf="http://www.w3.org/1999/02/22-rdf-syntax-ns#"
   xmlns:svg="http://www.w3.org/2000/svg"
   xmlns="http://www.w3.org/2000/svg"
   xmlns:sodipodi="http://sodipodi.sourceforge.net/DTD/sodipodi-0.dtd"
   xmlns:inkscape="http://www.inkscape.org/namespaces/inkscape"
   width="75"
   height="75"
   id="svg6065"
   version="1.1"
   inkscape:version="1.0.1 (3bc2e813f5, 2020-09-07)"
   sodipodi:docname="door-two.svg"
   inkscape:export-filename="C:\Users\svent\Documents\sven-frankson\fluid-x\datas\textures\door-two.png"
   inkscape:export-xdpi="163.84"
   inkscape:export-ydpi="163.84">
  <defs
     id="defs6067" />
  <sodipodi:namedview
     id="base"
     pagecolor="#ffffff"
     bordercolor="#666666"
     borderopacity="1.0"
     inkscape:pageopacity="0.0"
     inkscape:pageshadow="2"
     inkscape:zoom="11.2"
     inkscape:cx="61.476618"
     inkscape:cy="33.830344"
     inkscape:document-units="px"
     inkscape:current-layer="layer1"
     showgrid="false"
     inkscape:window-width="2560"
     inkscape:window-height="1377"
     inkscape:window-x="1912"
     inkscape:window-y="-8"
     inkscape:window-maximized="1"
     inkscape:document-rotation="0" />
  <metadata
     id="metadata6070">
    <rdf:RDF>
      <cc:Work
         rdf:about="">
        <dc:format>image/svg+xml</dc:format>
        <dc:type
           rdf:resource="http://purl.org/dc/dcmitype/StillImage" />
        <dc:title />
      </cc:Work>
    </rdf:RDF>
  </metadata>
  <g
     inkscape:label="Layer 1"
     inkscape:groupmode="layer"
     id="layer1"
     transform="translate(-273.82856,-427.79074)">
    <rect
       style="fill:#1f2128;fill-opacity:1;stroke:none;stroke-width:2;stroke-linecap:round;stroke-linejoin:round;stroke-miterlimit:4;stroke-dasharray:none;stroke-dashoffset:34.0158;stroke-opacity:1;paint-order:stroke fill markers"
       id="rect835"
       width="75"
       height="75"
       x="273.82855"
       y="427.79071" />
    <path
       class="st7"
       d="m 334.67726,475.31944 c -2.20768,0.84549 -4.1805,-0.14092 -6.3412,-0.37578 l -6.95183,-0.70458 c -5.07296,-0.51669 -14.74916,0.93944 -19.54029,2.44254 -4.5093,1.5031 -7.09275,4.03958 -12.02479,1.08035 -1.69099,-1.03338 -1.87888,-0.89246 -2.3486,-2.67739 -0.14091,-0.46972 -0.51669,-0.98641 0.18789,-1.36219 1.40916,-0.14091 2.58345,0.61064 4.03958,0.42275 3.335,-0.42275 6.38817,-1.78493 9.86409,-1.92585 2.86528,-1.03338 18.03719,-2.20767 21.8419,-2.25464 1.45613,-0.65761 3.14712,-0.18789 4.55627,-0.75155 1.87888,-0.094 7.13972,2.01978 7.42156,3.61683 0.18788,0.84549 -0.5167,1.64401 -0.70458,2.48951 z M 321.76,456.90647 c 0.3288,0.42275 -4.5093,1.36219 -5.26085,1.55007 -3.85169,0.93944 -15.87648,6.62303 -17.8493,6.52909 l -0.047,-0.56366 c 1.8319,-0.93944 6.71697,-3.56986 7.5155,-5.07296 -1.78493,-2.11373 -3.42895,-2.16071 -4.5093,-5.07296 1.87887,-0.65761 3.05317,0.37577 4.74416,0.23486 1.45612,-0.14092 1.45612,-0.51669 3.10014,-0.37578 1.78493,0.18789 5.1669,-3.14711 7.65641,-2.63042 2.48951,0.51669 3.10014,1.03338 5.44873,2.25465 0.37578,1.26824 1.87888,1.73796 0.14092,2.63042 z"
       id="path29-0"
       style="fill:#ffffff;stroke-width:1.99937008;fill-opacity:1;stroke:none;stroke-opacity:1;stroke-miterlimit:4;stroke-dasharray:none;stroke-linejoin:round;stroke-linecap:round;paint-order:stroke fill markers" />
  </g>
</svg>
