<?xml version="1.0" encoding="UTF-8" standalone="no"?>
<svg
   xmlns:dc="http://purl.org/dc/elements/1.1/"
   xmlns:cc="http://creativecommons.org/ns#"
   xmlns:rdf="http://www.w3.org/1999/02/22-rdf-syntax-ns#"
   xmlns:svg="http://www.w3.org/2000/svg"
   xmlns="http://www.w3.org/2000/svg"
   xmlns:sodipodi="http://sodipodi.sourceforge.net/DTD/sodipodi-0.dtd"
   xmlns:inkscape="http://www.inkscape.org/namespaces/inkscape"
   width="75"
   height="75"
   version="1.1"
   id="svg10"
   sodipodi:docname="green-west-wind.svg"
   inkscape:version="1.0.1 (3bc2e813f5, 2020-09-07)">
  <metadata
     id="metadata16">
    <rdf:RDF>
      <cc:Work
         rdf:about="">
        <dc:format>image/svg+xml</dc:format>
        <dc:type
           rdf:resource="http://purl.org/dc/dcmitype/StillImage" />
        <dc:title></dc:title>
      </cc:Work>
    </rdf:RDF>
  </metadata>
  <defs
     id="defs14" />
  <sodipodi:namedview
     pagecolor="#ffffff"
     bordercolor="#666666"
     borderopacity="1"
     objecttolerance="10"
     gridtolerance="10"
     guidetolerance="10"
     inkscape:pageopacity="0"
     inkscape:pageshadow="2"
     inkscape:window-width="2560"
     inkscape:window-height="1377"
     id="namedview12"
     showgrid="false"
     inkscape:zoom="7.4948859"
     inkscape:cx="60.085689"
     inkscape:cy="40.006832"
     inkscape:window-x="1912"
     inkscape:window-y="-8"
     inkscape:window-maximized="1"
     inkscape:current-layer="svg10" />
  <rect
     style="fill:#3e6958;stroke:none;stroke-width:18.8976;stroke-linecap:square;stroke-linejoin:round;stroke-dashoffset:34.0158;paint-order:stroke fill markers;fill-opacity:1"
     id="rect844"
     width="75"
     height="75"
     x="0"
     y="0" />
  <path
     fill="#20208c"
     d="m 54.55,27.8 c 0.79994,4e-5 2.29994,0.6667 4.5,2 2.19994,1.33337 3.29994,2.3667 3.3,3.1 -6e-5,0.2667 -0.2334,0.63336 -0.7,1.1 -0.40006,0.4667 -0.96673,1.53336 -1.7,3.2 -0.66673,1.60002 -1.26673,3.80002 -1.8,6.6 -0.86673,5.13335 -1.60006,8.56668 -2.2,10.3 -0.60006,1.73334 -1.56672,3.46667 -2.9,5.2 -1.20005,1.46667 -2.03339,2.2 -2.5,2.2 -0.60005,0 -1.00005,-0.23333 -1.2,-0.7 l -2.2,-6.6 c -0.73338,-1.59999 -2.30005,-2.39999 -4.7,-2.4 -0.73338,1e-5 -7.70004,0.56668 -20.9,1.7 -0.13336,0.0667 -0.26669,0.23334 -0.4,0.5 -0.0667,0.20001 -0.26669,0.63334 -0.6,1.3 -0.26669,0.66667 -0.70002,1.40001 -1.3,2.2 -0.66669,-2.46666 -1.26669,-5.46666 -1.8,-9 -0.53335,-3.53332 -1.13335,-6.46665 -1.8,-8.8 -0.66668,-2.39997 -1.66668,-4.63331 -3,-6.7 l 6.3,0.5 c 0.0667,3e-5 0.13331,3e-5 0.2,0 1.13331,3e-5 4.03331,-0.4333 8.7,-1.3 V 25 c -3e-5,-0.46663 -0.23336,-1.19996 -0.7,-2.2 -0.40003,-0.99996 -0.73336,-1.53329 -1,-1.6 -3e-5,-0.0666 -0.43336,-0.13329 -1.3,-0.2 -0.80003,-0.13329 -1.83336,-0.36662 -3.1,-0.7 -1.20002,-0.39996 -2.16669,-0.99996 -2.9,-1.8 3.19998,4e-5 7.69997,-0.59996 13.5,-1.8 l 15.4,-3.2 c 2.73328,5e-5 4.09995,0.53338 4.1,1.6 -5e-5,0.46671 -0.63339,1.00005 -1.9,1.6 -1.20005,0.53338 -2.26672,0.90005 -3.2,1.1 -1.66671,0.20004 -4.16671,0.63338 -7.5,1.3 0.93329,1.06671 1.96662,2.46671 3.1,4.2 l -1.9,6.3 c 0.0666,0.0667 0.33329,0.10003 0.8,0.1 l 13.3,-1.9 m -17.1,2.6 V 19.2 l -9.1,1.4 c 1.9333,1.33337 2.89997,2.30004 2.9,2.9 v 7.8 h 1.5 c 0.46663,3e-5 2.0333,-0.29997 4.7,-0.9 m 13.8,22.8 c 0.93328,-1.19999 1.76661,-3.63332 2.5,-7.3 0.79994,-3.66665 1.19994,-6.79998 1.2,-9.4 -6e-5,-2.46664 -0.33339,-3.9333 -1,-4.4 -0.53339,-0.39997 -2.13339,-0.59997 -4.8,-0.6 h -9.1 v 7.2 c 1.19996,0.66669 2.03329,1.00002 2.5,1 0.19995,2e-5 0.63329,-0.0666 1.3,-0.2 0.73329,-0.19998 1.19995,-0.29998 1.4,-0.3 1.86662,2e-5 3.03328,0.73336 3.5,2.2 -1.13338,0.86669 -2.70005,1.30002 -4.7,1.3 -2.60004,2e-5 -4.50004,-0.49998 -5.7,-1.5 -1.13337,-0.99998 -1.70004,-2.73331 -1.7,-5.2 -4e-5,-1.26664 0.1,-2.46664 0.3,-3.6 -1.2667,0.2667 -3.2667,0.53336 -6,0.8 -0.33337,2.06669 -0.60003,3.63336 -0.8,4.7 -0.20003,1.00002 -0.5667,2.20002 -1.1,3.6 -0.53336,1.40002 -1.23336,2.53335 -2.1,3.4 -0.80003,0.86668 -1.83336,1.56668 -3.1,2.1 v -0.6 c 0.39997,-0.66665 1.16664,-2.36665 2.3,-5.1 1.1333,-2.73331 1.69997,-4.29997 1.7,-4.7 v -2.5 l -8.7,1.4 v 0.9 c -2e-5,0.13336 0.1,0.76669 0.3,1.9 l 0.4,2.4 c 0.39998,4.26668 0.66664,7.80001 0.8,10.6 l 23.4,-2.4 c 0.93329,1e-5 1.73329,0.20001 2.4,0.6 0.73328,0.40001 1.23328,0.80001 1.5,1.2 0.33328,0.33335 0.96662,1.16668 1.9,2.5 h 1.4"
     font-family="'Droid Serif'"
     font-size="100px"
     font-weight="400"
     style="-inkscape-font-specification:'Droid Serif';fill:#2b2821;fill-opacity:1;stroke:#e3cfb4;stroke-opacity:1;stroke-width:2;stroke-miterlimit:4;stroke-dasharray:none;stroke-linejoin:round;stroke-linecap:round;paint-order:stroke fill markers"
     id="path4" />
</svg>
