<?xml version="1.0" encoding="UTF-8" standalone="no"?>
<svg
   xmlns:dc="http://purl.org/dc/elements/1.1/"
   xmlns:cc="http://creativecommons.org/ns#"
   xmlns:rdf="http://www.w3.org/1999/02/22-rdf-syntax-ns#"
   xmlns:svg="http://www.w3.org/2000/svg"
   xmlns="http://www.w3.org/2000/svg"
   xmlns:sodipodi="http://sodipodi.sourceforge.net/DTD/sodipodi-0.dtd"
   xmlns:inkscape="http://www.inkscape.org/namespaces/inkscape"
   width="100mm"
   height="35mm"
   viewBox="0 0 100 35"
   version="1.1"
   id="svg8"
   inkscape:version="1.0.1 (3bc2e813f5, 2020-09-07)"
   sodipodi:docname="input.svg">
  <defs
     id="defs2" />
  <sodipodi:namedview
     id="base"
     pagecolor="#ffffff"
     bordercolor="#666666"
     borderopacity="1.0"
     inkscape:pageopacity="0.0"
     inkscape:pageshadow="2"
     inkscape:zoom="1.979899"
     inkscape:cx="41.703578"
     inkscape:cy="213.07747"
     inkscape:document-units="mm"
     inkscape:current-layer="layer1"
     inkscape:document-rotation="0"
     showgrid="false"
     showguides="false"
     inkscape:window-width="2560"
     inkscape:window-height="1377"
     inkscape:window-x="1912"
     inkscape:window-y="-8"
     inkscape:window-maximized="1" />
  <metadata
     id="metadata5">
    <rdf:RDF>
      <cc:Work
         rdf:about="">
        <dc:format>image/svg+xml</dc:format>
        <dc:type
           rdf:resource="http://purl.org/dc/dcmitype/StillImage" />
        <dc:title />
      </cc:Work>
    </rdf:RDF>
  </metadata>
  <g
     inkscape:label="Calque 1"
     inkscape:groupmode="layer"
     id="layer1">
    <path
       id="rect835-0"
       style="fill:#b1a58d;fill-opacity:1;stroke:#2b2821;stroke-width:0.5;stroke-linecap:round;stroke-linejoin:round;stroke-miterlimit:4;stroke-dasharray:none;stroke-dashoffset:34.0158;stroke-opacity:1;paint-order:fill markers stroke"
       d="M 88.226764,28.239282 98.990734,17.499768 88.226764,6.7607232 H 11.773233 L 1.0092662,17.499768 11.773233,28.239282 Z"
       sodipodi:nodetypes="ccccccc" />
    <rect
       style="fill:#e3cfb4;fill-opacity:1;stroke:none;stroke-width:0.499999;stroke-linecap:round;stroke-linejoin:round;stroke-miterlimit:4;stroke-dasharray:none;stroke-dashoffset:34.0158;stroke-opacity:1;paint-order:stroke fill markers"
       id="rect1070"
       width="40.834621"
       height="0.99586034"
       x="29.582687"
       y="11.00153" />
    <rect
       style="fill:#e3cfb4;fill-opacity:1;stroke:none;stroke-width:0.499999;stroke-linecap:round;stroke-linejoin:round;stroke-miterlimit:4;stroke-dasharray:none;stroke-dashoffset:34.0158;stroke-opacity:1;paint-order:stroke fill markers"
       id="rect1070-4"
       width="40.834625"
       height="0.99586034"
       x="29.582687"
       y="23.002619" />
    <rect
       style="fill:#e3cfb4;fill-opacity:1;stroke:none;stroke-width:0.499999;stroke-linecap:round;stroke-linejoin:round;stroke-miterlimit:4;stroke-dasharray:none;stroke-dashoffset:34.0158;stroke-opacity:1;paint-order:stroke fill markers"
       id="rect1070-6"
       width="46.340424"
       height="0.99586034"
       x="26.829784"
       y="17.002071" />
    <rect
       style="fill:#624c3c;fill-opacity:1;stroke:#2b2821;stroke-width:0.500001;stroke-linecap:round;stroke-linejoin:round;stroke-miterlimit:4;stroke-dasharray:none;stroke-dashoffset:34.0158;stroke-opacity:1;paint-order:fill markers stroke"
       id="rect835"
       width="22.815605"
       height="22.815605"
       x="36.350719"
       y="-34.448441"
       transform="matrix(0.70622311,0.70798935,-0.70622311,0.70798935,0,0)" />
    <ellipse
       style="fill:#5c8b93;fill-opacity:1;stroke:#2b2821;stroke-width:0.5;stroke-linecap:round;stroke-linejoin:round;stroke-miterlimit:4;stroke-dasharray:none;stroke-dashoffset:34.0158;stroke-opacity:1;paint-order:fill markers stroke"
       id="path970"
       cx="50"
       cy="17.500006"
       rx="10.032869"
       ry="10.057961" />
    <g
       aria-label="動"
       transform="scale(0.99875186,1.0012497)"
       id="text978"
       style="font-size:16.5344px;line-height:1.25;font-family:Xolonium;-inkscape-font-specification:Xolonium;fill:#e3cfb4;fill-opacity:1;stroke-width:0.264583">
      <path
         d="m 47.499172,19.553034 v 1.186795 h 0.960739 l 2.018359,-0.03229 q 0.113028,0 0.113028,0.113028 v 0.468259 q 0,0.113028 -0.113028,0.113028 l -2.018359,-0.03229 h -0.960739 v 1.34019 q 1.703495,-0.242203 3.108273,-0.532847 -0.06459,0.153396 -0.09688,0.379452 -0.02422,0.217983 -0.06459,0.25835 -0.03229,0.04037 -0.234129,0.07266 -2.357444,0.484406 -5.933977,0.912298 -0.581288,0.08073 -0.662022,0.137249 -0.113028,0.08073 -0.185689,0.08073 -0.121102,0 -0.177616,-0.185689 -0.113028,-0.306791 -0.217983,-0.742756 0.226057,0.0081 0.403672,0.0081 0.589361,0 1.332118,-0.07266 0.783123,-0.06459 2.034506,-0.234129 v -1.420925 h -1.227163 l -2.010286,0.03229 q -0.121101,0 -0.121101,-0.113028 v -0.468259 q 0,-0.113028 0.121101,-0.113028 l 2.010286,0.03229 h 1.227163 v -1.186795 h -0.880005 l -1.945698,0.03229 q -0.113028,0 -0.113028,-0.113028 l 0.02422,-1.356338 v -1.542027 l -0.02422,-1.372484 q 0,-0.113028 0.113028,-0.113028 l 1.945698,0.03229 h 0.880005 V 13.941995 H 45.33549 l -2.099094,0.03229 q -0.121101,0 -0.121101,-0.113028 v -0.460186 q 0,-0.121101 0.121101,-0.121101 l 2.099094,0.04037 h 1.469366 v -1.259456 q -1.348264,0.217982 -2.664235,0.347157 -0.113028,0.01615 -0.161468,0.01615 -0.113028,0 -0.217983,-0.201836 -0.104955,-0.234129 -0.314864,-0.411745 3.245522,-0.242203 5.643333,-0.944592 0.484406,-0.153396 0.710462,-0.306791 0.347158,0.217983 0.540921,0.395599 0.137248,0.104954 0.137248,0.209909 0,0.137248 -0.266423,0.137248 -0.121102,0 -0.613582,0.129175 -1.202942,0.322938 -2.099093,0.49248 v 1.396705 h 1.227162 l 2.099094,-0.04037 q 0.09688,0 0.09688,0.121101 v 0.460186 q 0,0.113028 -0.08073,0.113028 l -2.115241,-0.03229 h -1.227162 v 1.178722 h 0.944592 l 1.961845,-0.03229 q 0.121102,0 0.121102,0.113028 l -0.03229,1.356338 v 1.558173 l 0.03229,1.356338 q 0,0.113028 -0.121102,0.113028 l -1.961845,-0.03229 z m 0,-0.565141 h 2.317076 v -1.420925 h -2.317076 z m 2.317076,-1.986065 v -1.324044 h -2.317076 v 1.324044 z m -3.011392,-1.324044 h -2.236342 v 1.324044 h 2.236342 z m -2.236342,1.889184 v 1.420925 h 2.236342 v -1.420925 z m 9.575097,-3.423137 h 0.993033 l 1.816523,-0.03229 q 0.137249,0 0.137249,0.129175 -0.03229,0.500553 -0.03229,1.445145 -0.06459,4.682594 -0.484406,7.282241 -0.28257,1.606614 -1.687349,1.606614 -0.694315,0 -1.259456,-0.04844 -0.185689,-0.01615 -0.226056,-0.06459 -0.02422,-0.03229 -0.03229,-0.185689 -0.02422,-0.347158 -0.185689,-0.605508 0.815417,0.145322 1.687348,0.145322 0.452113,0 0.678169,-0.30679 0.201836,-0.266424 0.298717,-0.863858 0.44404,-2.607721 0.44404,-7.807015 h -2.179829 q -0.121101,2.785336 -0.613581,4.593786 -0.524773,1.881111 -1.31597,3.084054 -0.791197,1.219089 -2.074874,2.163681 -0.161469,0.121102 -0.209909,0.121102 -0.05651,0 -0.185689,-0.137249 -0.169543,-0.201836 -0.532847,-0.339084 1.558173,-0.888078 2.470472,-2.373591 0.694315,-1.114134 1.154501,-2.81763 0.419819,-1.509733 0.565141,-4.295069 H 53.021403 L 51.2291,14.87044 q -0.113028,0 -0.113028,-0.113028 v -0.532847 q 0,-0.113028 0.113028,-0.113028 l 1.792303,0.03229 h 0.363305 q 0.03229,-0.710463 0.03229,-2.050654 0,-1.178722 -0.121102,-1.937625 0.532847,0.03229 0.880005,0.121102 0.169542,0.02422 0.169542,0.145322 0,0.06459 -0.08881,0.314864 -0.09688,0.250276 -0.09688,1.485512 0,1.259457 -0.01615,1.921479 z"
         style="font-style:normal;font-variant:normal;font-weight:normal;font-stretch:normal;font-family:'Yu Gothic';-inkscape-font-specification:'Yu Gothic';fill:#e3cfb4;fill-opacity:1;stroke-width:0.264583"
         id="path1105" />
    </g>
    <g
       aria-label="左"
       transform="scale(0.99854552,1.0014566)"
       id="text982"
       style="font-size:15.3211px;line-height:1.25;font-family:Xolonium;-inkscape-font-specification:Xolonium;fill:#e3cfb4;fill-opacity:1;stroke:none;stroke-width:0.5;stroke-linecap:round;stroke-linejoin:round;stroke-miterlimit:4;stroke-dasharray:none;stroke-opacity:1;paint-order:stroke fill markers">
      <path
         d="m 23.443705,23.788514 q 0,0.119696 -0.112215,0.119696 l -2.176973,-0.02992 h -6.029691 l -2.162011,0.02992 q -0.112215,0 -0.112215,-0.119696 v -0.710696 q 0,-0.119696 0.112215,-0.119696 l 2.162011,0.02992 h 2.371479 V 18.70143 h -3.246756 q -1.211923,2.580947 -3.246757,4.53349 -0.157101,0.14962 -0.231911,0.14962 -0.05237,0 -0.216949,-0.179544 -0.231912,-0.299241 -0.51619,-0.478785 3.306605,-2.625833 4.623262,-8.116891 h -1.900176 l -2.064757,0.02992 q -0.127177,0 -0.127177,-0.119696 V 13.79389 q 0,-0.119696 0.127177,-0.119696 l 2.064757,0.02992 h 2.102163 q 0.14962,-0.800468 0.209468,-1.211923 0.07481,-0.52367 0.07481,-1.032379 0,-0.231911 -0.0075,-0.418936 0.673291,0.08229 0.987493,0.134658 0.216949,0.04489 0.216949,0.172063 0,0.104734 -0.07481,0.239392 -0.157101,0.276797 -0.231911,0.830392 -0.09725,0.695733 -0.22443,1.286733 h 5.393805 l 2.049796,-0.02992 q 0.119696,0 0.119696,0.119696 v 0.725658 q 0,0.119696 -0.119696,0.119696 l -2.049796,-0.02992 h -5.58083 q -0.411456,1.78796 -0.994974,3.216832 h 5.393805 l 2.049796,-0.02992 q 0.127177,0 0.127177,0.119696 v 0.695734 q 0,0.119696 -0.127177,0.119696 l -2.049796,-0.02992 h -1.56353 v 4.286616 h 2.693162 l 2.176973,-0.02992 q 0.112215,0 0.112215,0.119696 z"
         style="font-style:normal;font-variant:normal;font-weight:normal;font-stretch:normal;font-family:'Yu Gothic UI';-inkscape-font-specification:'Yu Gothic UI';fill:#e3cfb4;fill-opacity:1;stroke:none;stroke-width:0.5;stroke-linecap:round;stroke-linejoin:round;stroke-miterlimit:4;stroke-dasharray:none;stroke-opacity:1;paint-order:stroke fill markers"
         id="path1102" />
    </g>
    <g
       aria-label="右"
       transform="scale(0.99882677,1.0011746)"
       id="text986"
       style="font-size:14.5255px;line-height:1.25;font-family:Xolonium;-inkscape-font-specification:Xolonium;fill:#e3cfb4;fill-opacity:1;stroke:none;stroke-width:0.5;stroke-linecap:round;stroke-linejoin:round;stroke-miterlimit:4;stroke-dasharray:none;stroke-opacity:1;paint-order:stroke fill markers">
      <path
         d="m 90.08253,14.614094 q 0,0.11348 -0.113481,0.11348 l -1.922075,-0.02837 h -5.205917 q -0.638327,1.730578 -1.581634,3.106528 0.304979,0.01419 1.553264,0.01419 h 3.638468 l 1.957538,-0.02837 q 0.120573,0 0.120573,0.127666 l -0.02837,1.617096 v 1.496524 l 0.02837,2.688069 q 0,0.11348 -0.11348,0.11348 h -0.702161 q -0.09929,0 -0.09929,-0.11348 v -0.801456 h -5.964818 v 0.858196 q 0,0.113481 -0.120573,0.113481 h -0.680882 q -0.113481,0 -0.113481,-0.113481 l 0.02837,-2.702254 v -1.354673 q 0,-0.943306 -0.01418,-1.212822 -1.000046,1.276655 -2.38309,2.361812 -0.163128,0.11348 -0.205683,0.11348 -0.05674,0 -0.198591,-0.184405 -0.198591,-0.276609 -0.496477,-0.468107 3.099435,-2.085204 4.447016,-5.631469 h -2.255424 l -1.914983,0.02837 q -0.113481,0 -0.113481,-0.11348 v -0.659605 q 0,-0.113481 0.113481,-0.113481 l 1.914983,0.02837 h 2.532033 q 0.184405,-0.61705 0.297886,-1.120619 0.262423,-1.163175 0.262423,-1.68093 0.645421,0.113481 0.914937,0.184406 0.219868,0.07802 0.219868,0.191498 0,0.01418 -0.148943,0.304979 -0.177313,0.368812 -0.333349,1.028417 -0.07802,0.340441 -0.283701,1.092249 h 4.929308 l 1.922075,-0.02837 q 0.113481,0 0.113481,0.113481 z m -2.4682,7.489711 v -3.468247 h -5.964818 v 3.468247 z"
         style="font-style:normal;font-variant:normal;font-weight:normal;font-stretch:normal;font-family:'Yu Gothic UI';-inkscape-font-specification:'Yu Gothic UI';fill:#e3cfb4;fill-opacity:1;stroke:none;stroke-width:0.5;stroke-linecap:round;stroke-linejoin:round;stroke-miterlimit:4;stroke-dasharray:none;stroke-opacity:1;paint-order:stroke fill markers"
         id="path1108" />
    </g>
  </g>
</svg>
