<?xml version="1.0" encoding="UTF-8" standalone="no"?>
<svg
   xmlns:dc="http://purl.org/dc/elements/1.1/"
   xmlns:cc="http://creativecommons.org/ns#"
   xmlns:rdf="http://www.w3.org/1999/02/22-rdf-syntax-ns#"
   xmlns:svg="http://www.w3.org/2000/svg"
   xmlns="http://www.w3.org/2000/svg"
   xmlns:sodipodi="http://sodipodi.sourceforge.net/DTD/sodipodi-0.dtd"
   xmlns:inkscape="http://www.inkscape.org/namespaces/inkscape"
   width="100mm"
   height="35mm"
   viewBox="0 0 100 35"
   version="1.1"
   id="svg8"
   inkscape:version="1.0.1 (3bc2e813f5, 2020-09-07)"
   sodipodi:docname="input-bar.svg">
  <defs
     id="defs2" />
  <sodipodi:namedview
     id="base"
     pagecolor="#ffffff"
     bordercolor="#666666"
     borderopacity="1.0"
     inkscape:pageopacity="0.0"
     inkscape:pageshadow="2"
     inkscape:zoom="1.979899"
     inkscape:cx="180.59955"
     inkscape:cy="176.71198"
     inkscape:document-units="mm"
     inkscape:current-layer="layer1"
     inkscape:document-rotation="0"
     showgrid="false"
     showguides="false"
     inkscape:window-width="2560"
     inkscape:window-height="1377"
     inkscape:window-x="1912"
     inkscape:window-y="-8"
     inkscape:window-maximized="1" />
  <metadata
     id="metadata5">
    <rdf:RDF>
      <cc:Work
         rdf:about="">
        <dc:format>image/svg+xml</dc:format>
        <dc:type
           rdf:resource="http://purl.org/dc/dcmitype/StillImage" />
        <dc:title></dc:title>
      </cc:Work>
    </rdf:RDF>
  </metadata>
  <g
     inkscape:label="Calque 1"
     inkscape:groupmode="layer"
     id="layer1">
    <path
       id="rect835-0"
       style="fill:#b1a58d;fill-opacity:1;stroke:#2b2821;stroke-width:0.5;stroke-linecap:round;stroke-linejoin:round;stroke-miterlimit:4;stroke-dasharray:none;stroke-dashoffset:34.0158;stroke-opacity:1;paint-order:fill markers stroke"
       d="M 88.226764,28.239282 98.990734,17.499768 88.226764,6.7607232 H 11.773233 L 1.0092662,17.499768 11.773233,28.239282 Z"
       sodipodi:nodetypes="ccccccc" />
    <rect
       style="fill:#e3cfb4;fill-opacity:1;stroke:none;stroke-width:0.499999;stroke-linecap:round;stroke-linejoin:round;stroke-miterlimit:4;stroke-dasharray:none;stroke-dashoffset:34.0158;stroke-opacity:1;paint-order:stroke fill markers"
       id="rect1070"
       width="40.834621"
       height="0.99586034"
       x="29.582687"
       y="11.00153" />
    <rect
       style="fill:#e3cfb4;fill-opacity:1;stroke:none;stroke-width:0.499999;stroke-linecap:round;stroke-linejoin:round;stroke-miterlimit:4;stroke-dasharray:none;stroke-dashoffset:34.0158;stroke-opacity:1;paint-order:stroke fill markers"
       id="rect1070-4"
       width="40.834625"
       height="0.99586034"
       x="29.582687"
       y="23.002619" />
    <rect
       style="fill:#e3cfb4;fill-opacity:1;stroke:none;stroke-width:0.499999;stroke-linecap:round;stroke-linejoin:round;stroke-miterlimit:4;stroke-dasharray:none;stroke-dashoffset:34.0158;stroke-opacity:1;paint-order:stroke fill markers"
       id="rect1070-6"
       width="46.340424"
       height="0.99586034"
       x="26.829784"
       y="17.002071" />
    <g
       aria-label="左"
       transform="scale(0.99854552,1.0014566)"
       id="text982"
       style="font-size:15.3211px;line-height:1.25;font-family:Xolonium;-inkscape-font-specification:Xolonium;fill:#e3cfb4;fill-opacity:1;stroke:none;stroke-width:0.5;stroke-linecap:round;stroke-linejoin:round;stroke-miterlimit:4;stroke-dasharray:none;stroke-opacity:1;paint-order:stroke fill markers">
      <path
         d="m 23.443705,23.788514 q 0,0.119696 -0.112215,0.119696 l -2.176973,-0.02992 h -6.029691 l -2.162011,0.02992 q -0.112215,0 -0.112215,-0.119696 v -0.710696 q 0,-0.119696 0.112215,-0.119696 l 2.162011,0.02992 h 2.371479 V 18.70143 h -3.246756 q -1.211923,2.580947 -3.246757,4.53349 -0.157101,0.14962 -0.231911,0.14962 -0.05237,0 -0.216949,-0.179544 -0.231912,-0.299241 -0.51619,-0.478785 3.306605,-2.625833 4.623262,-8.116891 h -1.900176 l -2.064757,0.02992 q -0.127177,0 -0.127177,-0.119696 V 13.79389 q 0,-0.119696 0.127177,-0.119696 l 2.064757,0.02992 h 2.102163 q 0.14962,-0.800468 0.209468,-1.211923 0.07481,-0.52367 0.07481,-1.032379 0,-0.231911 -0.0075,-0.418936 0.673291,0.08229 0.987493,0.134658 0.216949,0.04489 0.216949,0.172063 0,0.104734 -0.07481,0.239392 -0.157101,0.276797 -0.231911,0.830392 -0.09725,0.695733 -0.22443,1.286733 h 5.393805 l 2.049796,-0.02992 q 0.119696,0 0.119696,0.119696 v 0.725658 q 0,0.119696 -0.119696,0.119696 l -2.049796,-0.02992 h -5.58083 q -0.411456,1.78796 -0.994974,3.216832 h 5.393805 l 2.049796,-0.02992 q 0.127177,0 0.127177,0.119696 v 0.695734 q 0,0.119696 -0.127177,0.119696 l -2.049796,-0.02992 h -1.56353 v 4.286616 h 2.693162 l 2.176973,-0.02992 q 0.112215,0 0.112215,0.119696 z"
         style="font-style:normal;font-variant:normal;font-weight:normal;font-stretch:normal;font-family:'Yu Gothic UI';-inkscape-font-specification:'Yu Gothic UI';fill:#e3cfb4;fill-opacity:1;stroke:none;stroke-width:0.5;stroke-linecap:round;stroke-linejoin:round;stroke-miterlimit:4;stroke-dasharray:none;stroke-opacity:1;paint-order:stroke fill markers"
         id="path1102" />
    </g>
    <g
       aria-label="右"
       transform="scale(0.99882677,1.0011746)"
       id="text986"
       style="font-size:14.5255px;line-height:1.25;font-family:Xolonium;-inkscape-font-specification:Xolonium;fill:#e3cfb4;fill-opacity:1;stroke:none;stroke-width:0.5;stroke-linecap:round;stroke-linejoin:round;stroke-miterlimit:4;stroke-dasharray:none;stroke-opacity:1;paint-order:stroke fill markers">
      <path
         d="m 90.08253,14.614094 q 0,0.11348 -0.113481,0.11348 l -1.922075,-0.02837 h -5.205917 q -0.638327,1.730578 -1.581634,3.106528 0.304979,0.01419 1.553264,0.01419 h 3.638468 l 1.957538,-0.02837 q 0.120573,0 0.120573,0.127666 l -0.02837,1.617096 v 1.496524 l 0.02837,2.688069 q 0,0.11348 -0.11348,0.11348 h -0.702161 q -0.09929,0 -0.09929,-0.11348 v -0.801456 h -5.964818 v 0.858196 q 0,0.113481 -0.120573,0.113481 h -0.680882 q -0.113481,0 -0.113481,-0.113481 l 0.02837,-2.702254 v -1.354673 q 0,-0.943306 -0.01418,-1.212822 -1.000046,1.276655 -2.38309,2.361812 -0.163128,0.11348 -0.205683,0.11348 -0.05674,0 -0.198591,-0.184405 -0.198591,-0.276609 -0.496477,-0.468107 3.099435,-2.085204 4.447016,-5.631469 h -2.255424 l -1.914983,0.02837 q -0.113481,0 -0.113481,-0.11348 v -0.659605 q 0,-0.113481 0.113481,-0.113481 l 1.914983,0.02837 h 2.532033 q 0.184405,-0.61705 0.297886,-1.120619 0.262423,-1.163175 0.262423,-1.68093 0.645421,0.113481 0.914937,0.184406 0.219868,0.07802 0.219868,0.191498 0,0.01418 -0.148943,0.304979 -0.177313,0.368812 -0.333349,1.028417 -0.07802,0.340441 -0.283701,1.092249 h 4.929308 l 1.922075,-0.02837 q 0.113481,0 0.113481,0.113481 z m -2.4682,7.489711 v -3.468247 h -5.964818 v 3.468247 z"
         style="font-style:normal;font-variant:normal;font-weight:normal;font-stretch:normal;font-family:'Yu Gothic UI';-inkscape-font-specification:'Yu Gothic UI';fill:#e3cfb4;fill-opacity:1;stroke:none;stroke-width:0.5;stroke-linecap:round;stroke-linejoin:round;stroke-miterlimit:4;stroke-dasharray:none;stroke-opacity:1;paint-order:stroke fill markers"
         id="path1108" />
    </g>
  </g>
</svg>
