<?xml version="1.0" encoding="UTF-8" standalone="no"?>
<svg
   xmlns:dc="http://purl.org/dc/elements/1.1/"
   xmlns:cc="http://creativecommons.org/ns#"
   xmlns:rdf="http://www.w3.org/1999/02/22-rdf-syntax-ns#"
   xmlns:svg="http://www.w3.org/2000/svg"
   xmlns="http://www.w3.org/2000/svg"
   xmlns:sodipodi="http://sodipodi.sourceforge.net/DTD/sodipodi-0.dtd"
   xmlns:inkscape="http://www.inkscape.org/namespaces/inkscape"
   width="75"
   height="75"
   id="svg5066"
   version="1.1"
   inkscape:version="1.0.1 (3bc2e813f5, 2020-09-07)"
   sodipodi:docname="yellow-east-wind.svg"
   inkscape:export-filename="C:\Users\svent\Documents\sven-frankson\fluid-x\datas\textures\yellow-east-wind.png"
   inkscape:export-xdpi="327.67999"
   inkscape:export-ydpi="327.67999">
  <defs
     id="defs5068" />
  <sodipodi:namedview
     id="base"
     pagecolor="#ffffff"
     bordercolor="#666666"
     borderopacity="1.0"
     inkscape:pageopacity="0.0"
     inkscape:pageshadow="2"
     inkscape:zoom="11.2"
     inkscape:cx="42.368038"
     inkscape:cy="39.623862"
     inkscape:document-units="px"
     inkscape:current-layer="layer1"
     showgrid="false"
     inkscape:window-width="2560"
     inkscape:window-height="1377"
     inkscape:window-x="1912"
     inkscape:window-y="-8"
     inkscape:window-maximized="1"
     inkscape:document-rotation="0" />
  <metadata
     id="metadata5071">
    <rdf:RDF>
      <cc:Work
         rdf:about="">
        <dc:format>image/svg+xml</dc:format>
        <dc:type
           rdf:resource="http://purl.org/dc/dcmitype/StillImage" />
        <dc:title />
      </cc:Work>
    </rdf:RDF>
  </metadata>
  <g
     inkscape:label="Layer 1"
     inkscape:groupmode="layer"
     id="layer1"
     transform="translate(-227.95074,-511.7373)">
    <rect
       style="fill:#d4804d;fill-opacity:1;stroke:none;stroke-width:2.00001;stroke-linecap:round;stroke-linejoin:round;stroke-miterlimit:4;stroke-dasharray:none;stroke-dashoffset:34.0158;stroke-opacity:1;paint-order:stroke fill markers"
       id="rect834"
       width="75"
       height="75"
       x="227.95074"
       y="511.7373" />
    <path
       style="font-style:normal;font-variant:normal;font-weight:normal;font-stretch:normal;font-size:100px;font-family:'Droid Serif';-inkscape-font-specification:'Droid Serif';fill:#2b2821;fill-opacity:1;stroke:#e3cfb4;stroke-opacity:1;stroke-width:2;stroke-miterlimit:4;stroke-dasharray:none;stroke-linejoin:round;stroke-linecap:round;paint-order:stroke fill markers"
       id="path5089"
       d="m 272.00074,553.5373 c -0.33338,-0.86665 -0.60005,-1.36665 -0.8,-1.5 -0.20005,-0.13331 -0.70004,-0.19998 -1.5,-0.2 -0.40004,2e-5 -2.30004,0.26669 -5.7,0.8 l -0.3,0.3 c 1.13329,1.06669 2.29996,2.06669 3.5,3 1.19996,0.93335 2.29996,1.76668 3.3,2.5 1.06662,0.66668 2.19995,1.33335 3.4,2 1.19995,0.60001 2.19995,1.13335 3,1.6 0.86661,0.40001 1.89995,0.83334 3.1,1.3 1.26661,0.40001 2.16661,0.73334 2.7,1 0.59994,0.20001 1.49994,0.43334 2.7,0.7 1.19994,0.26667 1.9666,0.46667 2.3,0.6 0.33327,0.0667 1.0666,0.23334 2.2,0.5 1.19993,0.20001 1.83327,0.30001 1.9,0.3 0.39993,0.0667 0.7666,0.40001 1.1,1 -4.66673,1.2 -7.96673,1.8 -9.9,1.8 -0.13339,0 -0.33339,0 -0.6,0 -0.20006,0 -0.36672,0 -0.5,0 -0.80006,0 -1.70005,-0.2 -2.7,-0.6 -1.00005,-0.46666 -2.80005,-1.76666 -5.4,-3.9 -2.60005,-2.19999 -5.86671,-5.29999 -9.8,-9.3 -0.20004,0.20002 -0.30004,0.33335 -0.3,0.4 v 10.3 c -4e-5,0.33334 0.0666,1.13334 0.2,2.4 0.1333,1.2 0.19996,1.96667 0.2,2.3 -4e-5,2.2 -0.60004,4.43333 -1.8,6.7 -1.93337,-1.26667 -2.90003,-2.73333 -2.9,-4.4 -3e-5,-0.13333 0.0333,-0.36667 0.1,-0.7 0.1333,-0.4 0.29997,-1.13333 0.5,-2.2 0.26663,-1.06666 0.5333,-2.39999 0.8,-4 l -0.1,-8.7 c -0.73337,0.60002 -1.83337,1.50001 -3.3,2.7 -1.4667,1.13335 -2.63336,2.03334 -3.5,2.7 -0.86669,0.66668 -1.93336,1.50001 -3.2,2.5 -1.26669,0.93334 -2.33336,1.70001 -3.2,2.3 -0.80002,0.53334 -1.70002,1.1 -2.7,1.7 -0.93335,0.53334 -1.76668,0.93334 -2.5,1.2 -0.66668,0.26667 -1.23335,0.4 -1.7,0.4 h -2.6 c 1.06665,-0.73333 2.49999,-1.73333 4.3,-3 1.86665,-1.26666 3.16665,-2.13333 3.9,-2.6 0.73331,-0.53332 1.73331,-1.26666 3,-2.2 1.33331,-0.93332 2.26664,-1.59999 2.8,-2 0.53331,-0.46665 1.23331,-1.06665 2.1,-1.8 0.9333,-0.79999 1.6333,-1.46665 2.1,-2 0.46664,-0.53332 0.96664,-1.13332 1.5,-1.8 0.5333,-0.73331 1.0333,-1.46665 1.5,-2.2 -0.13337,-0.13331 -0.4667,-0.19998 -1,-0.2 -1.33336,2e-5 -2.3667,0.13335 -3.1,0.4 -0.73336,0.20002 -1.16669,0.40002 -1.3,0.6 -0.0667,0.20002 -0.16669,0.53335 -0.3,1 -0.80003,2e-5 -1.53336,-0.73331 -2.2,-2.2 -0.60003,-1.46664 -1.40002,-3.39998 -2.4,-5.8 -1.00002,-2.46664 -2.16669,-4.46664 -3.5,-6 v -1.6 h 2.7 l 1.4,0.7 c 0.0666,0.0667 0.43331,0.10003 1.1,0.1 1.33331,3e-5 4.8333,-0.8333 10.5,-2.5 v -3.9 c -0.40004,4e-5 -1.3667,0.13337 -2.9,0.4 -1.53336,0.20004 -2.50003,0.30004 -2.9,0.3 -0.93336,4e-5 -2.26669,-0.43329 -4,-1.3 l 9.8,-1.9 v -4 l -2,-6.6 c 2.19996,0.53339 4.26663,1.40005 6.2,2.6 l -1.2,5.5 c -4e-5,0.40004 0.23329,0.73338 0.7,1 l 6.6,-1.4 c 1.06662,0.0667 2.26662,0.50004 3.6,1.3 -1.73338,0.93338 -5.03338,2.03337 -9.9,3.3 -0.53337,0.13337 -1.00004,0.50004 -1.4,1.1 v 3 c 0.0666,0.13337 0.29996,0.20004 0.7,0.2 0.26663,4e-5 1.93329,-0.29996 5,-0.9 3.13329,-0.66663 4.83328,-0.99996 5.1,-1 0.53328,4e-5 1.66662,0.40004 3.4,1.2 1.79995,0.73337 2.69995,1.53337 2.7,2.4 -5e-5,0.33337 -0.23339,0.90003 -0.7,1.7 -0.46672,0.80003 -1.00005,1.6667 -1.6,2.6 -0.60005,0.8667 -0.96672,1.43336 -1.1,1.7 l -3.5,8.3 h -1.7 m -8.3,-10.5 c 0.79996,0.20003 1.46663,0.30003 2,0.3 0.33329,3e-5 0.63329,-0.0333 0.9,-0.1 0.33329,-0.1333 0.53329,-0.19997 0.6,-0.2 1.99996,3e-5 3.13329,0.4667 3.4,1.4 -1.00004,0.53336 -3.30004,1.26669 -6.9,2.2 v 2.9 c 0.3333,0.40002 1.09996,0.60002 2.3,0.6 l 6,-0.6 c 1.13329,-4.46664 1.69995,-7.16664 1.7,-8.1 -5e-5,-1.19997 -0.16671,-1.9333 -0.5,-2.2 h -6.1 c -0.46671,3e-5 -1.60004,0.30003 -3.4,0.9 v 2.9 m -2.7,1.3 v -3.7 h -1.4 l -9,1.7 3.1,9.5 5.5,-0.9 c 0.46663,0.13336 1.0333,0.36669 1.7,0.7 v -4.1 c -4e-5,-0.19997 -0.10004,-0.29997 -0.3,-0.3 -1.80003,0.20003 -2.8667,0.30003 -3.2,0.3 -0.0667,3e-5 -0.20003,3e-5 -0.4,0 -0.13336,3e-5 -0.20003,3e-5 -0.2,0 -0.73336,3e-5 -1.2667,-0.0666 -1.6,-0.2 -0.33336,-0.19997 -0.73336,-0.59997 -1.2,-1.2 l 7,-1.8"
       sodipodi:nodetypes="cssccscccccsccscssscccccsscscccccsccccccccccssccscccccccccscccsccccccccccccscscsscccccscscccccscccccccccccccsssccc" />
  </g>
  <g
     id="g5654"
     inkscape:groupmode="layer"
     inkscape:label="Layer 1 复制"
     transform="translate(-227.95074,-511.7373)" />
</svg>
